<svg xmlns="http://www.w3.org/2000/svg" width="100%" height="100%" xmlns:xlink="http://www.w3.org/1999/xlink" viewBox="0 0 870 1180" preserveAspectRatio="xMinYMin meet" ><defs id="svgEditorDefs"><style type="text/css">.svg_a{fill:blue;cursor:pointer;}
.svg_a:hover{text-decoration:underline;}
</style></defs><rect id="svgEditorBackground" x="0" y="0" width="870" height="1180" style="fill: none; stroke: none;"/><g id="e29_group"><g id="e18_group"><path d="M300.401,327.287c-9.713,11.088,-51.044,7.585,-14.937,-20.414c36.106,-31.982,59.928,-54.846,69.416,-50.702" style="stroke:red;fill:none;stroke-width:5px" id="e13_curve3"/><path d="M300.401,327.334c-10.01,12.571,-17.774,45.846,-13.941,60.697c3.833,14.852,19.338,34.586,32.862,41.824" style="stroke:red;fill:none;stroke-width:5px" id="e10_curve3"/><polyline style="stroke:black;fill:none;stroke-width:1px" id="e14_polyline" points="251.606,278.493"/><polyline style="stroke:black;fill:none;stroke-width:1px" id="e15_polyline" points="252.602,277.497"/><polyline style="stroke:black;fill:none;stroke-width:1px" id="e16_polyline" points="252.689,279.067"/><polyline style="stroke:black;fill:none;stroke-width:1px" id="e11_polyline" points="251.606,278.493"/><polyline style="stroke:black;fill:none;stroke-width:1px" id="e12_polyline" points="252.602,277.497"/><polyline style="stroke:black;fill:none;stroke-width:1px" id="e13_polyline" points="252.689,279.067"/><path d="M319.083,429.521c-18.688,10.969,-40.099,11.034,-62.498,62.073c-12.44,42.077,-11.397,82.669,-9.012,114.956" style="stroke:red;fill:none;stroke-width:5px" id="e8_curve3"/></g><g id="e16_group" transform="matrix(-1, 0, 0, 1, 704.225, 0)"><path d="M300.401,327.287c-9.713,11.088,-51.044,7.585,-14.937,-20.414c36.106,-31.982,59.928,-54.846,69.416,-50.702" style="stroke:red;fill:none;stroke-width:5px" id="e16_curve3"/><path d="M319.083,429.521c-18.688,10.969,-40.099,11.034,-62.498,62.073c-12.44,42.077,-11.397,82.669,-9.012,114.956" style="stroke:red;fill:none;stroke-width:5px" id="e17_curve3"/><path d="M300.401,327.334c-10.01,12.571,-17.774,45.846,-13.941,60.697c3.833,14.852,19.338,34.586,32.862,41.824" style="stroke:red;fill:none;stroke-width:5px" id="e18_curve3"/><polyline style="stroke:black;fill:none;stroke-width:1px" id="e18_polyline" points="251.606,278.493"/><polyline style="stroke:black;fill:none;stroke-width:1px" id="e19_polyline" points="252.602,277.497"/><polyline style="stroke:black;fill:none;stroke-width:1px" id="e20_polyline" points="252.689,279.067"/><polyline style="stroke:black;fill:none;stroke-width:1px" id="e21_polyline" points="251.606,278.493"/><polyline style="stroke:black;fill:none;stroke-width:1px" id="e22_polyline" points="252.602,277.497"/><polyline style="stroke:black;fill:none;stroke-width:1px" id="e23_polyline" points="252.689,279.067"/></g><path d="M247.35,606.14h209.28" style="fill:none;stroke:red;stroke-width:5px" id="e24_pathH"/><a id="e27_hyperlink" xlink:title="me" xlink:href="https://johanwranker.github.io/" target="_blank" class="svg_a" transform="matrix(1, 0, 0, 1, 183.401, 0.382883)"><text dy="-0.5em" style="fill:black;font-family:Arial;font-size:20px" id="e26_text" xml:space="preserve"><textPath id="e25_textPath" xlink:href="#e24_pathH">(c)</textPath></text></a></g></svg>